<?xml version="1.0" encoding="utf-8"?>
<!-- Generator: Adobe Illustrator 15.0.0, SVG Export Plug-In . SVG Version: 6.00 Build 0)  -->
<!DOCTYPE svg PUBLIC "-//W3C//DTD SVG 1.1//EN" "http://www.w3.org/Graphics/SVG/1.1/DTD/svg11.dtd">
<svg version="1.1" id="Layer_1" xmlns="http://www.w3.org/2000/svg" xmlns:xlink="http://www.w3.org/1999/xlink" x="0px" y="0px"
	 width="800px" height="600px" viewBox="0 0 800 600" enable-background="new 0 0 800 600" xml:space="preserve">
<polyline fill="#FFFFFF" stroke="#000000" stroke-miterlimit="10" points="333.212,333.448 354.393,299.271 333.02,305.894 
	356.506,263.148 334.104,265.884 338.725,258.944 324.481,250.427 324.481,250.427 300.639,286.231 323.041,283.498 
	299.555,326.241 320.928,319.617 308.909,340.049 308.365,340.983 292.707,367.752 352.406,329.469 "/>
<polyline fill="#FAFFBF" stroke="#FFF89F" stroke-miterlimit="10" points="324.853,335.374 345.658,305.131 329.562,308.607 
	349.7,266.83 330.597,268.592 336.075,259.693 326.996,256.502 324.606,255.318 310.099,279.94 328.312,279.183 303.805,323.115 
	325.136,316.711 312.755,337.038 311.992,338.623 297.717,363.074 339.381,334.158 "/>
<path fill="#FFFFFF" stroke="#000000" stroke-miterlimit="10" d="M241.628,143.692c0,0-20.05,2.347-19.243,22.192
	c0.71,17.479,12.332,22.349,21.774,23.396c6.601,0.732,12.137-0.402,12.137-0.402l-12.137,0.402c0,0-14.521,12.47-2.715,28.442
	c11.907,16.109,25.944,10.784,34.112,5.417l0,0l-1.332-11.119c0,0,2.385,58.058,55.792,22.172l-8.506,5.174
	c0,0-1.207,17.508,18.528,19.756c20.554,2.342,26.024-13.098,27.452-22.702c0.623-4.195,0.475-7.277,0.475-7.277l-0.293,5.904
	c0,0,0.095,2.021,0.309,2.307c9.137,12.232,24.75,25.174,52.128-9.683l0.953-0.891c0,0,12.941,10.618,22.591,1.955
	c18.327-16.453,4.524-32.569-0.746-37.609c-1.09-1.043,0.147-0.389,0.147-0.389l-2.726,6.338c0,0,24.337-49.762-8.067-52.813
	l0.995,14.313c0,0,2.506-53.211-45.054-30.402c-2.434,1.167,1.659-0.362-1.045,1.221l1.143,7.217c0,0,2.198-20.067-17.325-23.72
	c-16.875-3.156-26.202,0.679-30.654,4.942c-1.071,1.025,12.679,4.5,12.679,4.5l3.547,1.908c0,0-34.01-14.715-47.993-2.272
	c-0.971,0.864,4.055,3.044,4.273,3.576l0.117,1.381c0,0-0.892-6.312-20.686-7.94c-16.326-1.343-22.85,8.161-25.417,16.964
	c-0.023,0.08-0.047,0.16-0.069,0.24c-0.102,0.367,10.914,14.745,10.914,14.745l0.458,2.43c0,0-16.279-44.651-48.778-3.969"/>
<path fill="#FFFFFF" stroke="#000000" stroke-miterlimit="10" d="M333.212,333.448"/>
<path fill="#FFFFFF" stroke="#000000" stroke-miterlimit="10" d="M352.406,329.469"/>
<path fill="#FFFFFF" stroke="#000000" stroke-miterlimit="10" d="M333.212,333.448"/>
<path fill="#FFFFFF" stroke="#000000" stroke-miterlimit="10" d="M419.947,231.9"/>
<line fill="#FFFFFF" stroke="#000000" stroke-miterlimit="10" x1="333.212" y1="333.448" x2="352.406" y2="329.469"/>
<path fill="#CECEE1" d="M632.5,155.5"/>
<path fill="#FFFFFF" stroke="#000000" stroke-miterlimit="10" d="M275.987,222.859"/>
<path fill="#FFFFFF" stroke="#000000" stroke-miterlimit="10" d="M275.987,222.859"/>
<path fill="#FFFFFF" stroke="#000000" stroke-miterlimit="10" d="M275.987,222.859"/>
<path fill="#FFFFFF" stroke="#000000" stroke-miterlimit="10" d="M312.408,125.785"/>
<path fill="#9ED0D1" d="M254.792,153.976c0,0-18.531,2.14-17.911,19.16c0.546,14.991,11.247,19.095,19.961,19.934
	c6.091,0.587,11.211-0.422,11.211-0.422l-11.211,0.422c0,0-13.489,10.79-2.688,24.417c10.895,13.746,23.892,9.088,31.469,4.432l0,0
	l-1.16-9.53c0,0,1.836,49.792,51.384,18.668l-7.889,4.493c0,0-1.225,15.027,16.987,16.832c18.966,1.88,24.116-11.401,25.494-19.649
	c0.602-3.603,0.485-6.246,0.485-6.246l-0.308,5.067c0,0,0.075,1.734,0.27,1.978c8.362,10.436,22.698,21.44,48.202-8.636l0.886-0.77
	c0-0.001,11.884,9.027,20.85,1.534c17.03-14.23,4.384-27.969-0.451-32.259c-1-0.888,0.14-0.334,0.14-0.334l-2.558,5.455
	c0,0,22.789-42.844-7.117-45.257l0.829,12.273c0,0,2.649-45.666-41.416-25.797c-2.255,1.017,1.535-0.321-0.972,1.054l1.009,6.184
	c0,0,2.157-17.229-15.849-20.239c-15.564-2.602-24.203,0.747-28.34,4.433c-0.996,0.886,11.68,3.781,11.68,3.781l3.263,1.615
	c0,0-31.315-12.41-44.306-1.646c-0.902,0.748,3.725,2.585,3.923,3.04l0.1,1.185c0,0-0.784-5.409-19.054-6.681
	c-15.068-1.05-21.153,7.146-23.579,14.714c-0.021,0.069-0.044,0.137-0.066,0.206c-0.096,0.316,9.987,12.581,9.987,12.581
	l0.407,2.083c0,0-14.752-38.204-45.021-3.098"/>
<path fill="#FFFFFF" stroke="#000000" stroke-miterlimit="10" d="M301.212,352.448"/>
<path fill="#FFFFFF" stroke="#000000" stroke-miterlimit="10" d="M320.406,348.469"/>
<path fill="#FFFFFF" stroke="#000000" stroke-miterlimit="10" d="M301.212,352.448"/>
<path fill="#FFFFFF" stroke="#000000" stroke-miterlimit="10" d="M387.947,250.9"/>
<path fill="#FFFFFF" stroke="#000000" stroke-miterlimit="10" d="M243.987,241.859"/>
<path fill="#FFFFFF" stroke="#000000" stroke-miterlimit="10" d="M243.987,241.859"/>
<path fill="#FFFFFF" stroke="#000000" stroke-miterlimit="10" d="M243.987,241.859"/>
<path fill="#FFFFFF" stroke="#000000" stroke-miterlimit="10" d="M280.408,144.785"/>
</svg>
