<?xml version="1.0" encoding="utf-8"?>
<!-- Generator: Adobe Illustrator 15.0.0, SVG Export Plug-In . SVG Version: 6.00 Build 0)  -->
<!DOCTYPE svg PUBLIC "-//W3C//DTD SVG 1.1//EN" "http://www.w3.org/Graphics/SVG/1.1/DTD/svg11.dtd">
<svg version="1.1" id="Layer_1" xmlns="http://www.w3.org/2000/svg" xmlns:xlink="http://www.w3.org/1999/xlink" x="0px" y="0px"
	 width="800px" height="600px" viewBox="0 0 800 600" enable-background="new 0 0 800 600" xml:space="preserve">
<polyline fill="#FFFFFF" stroke="#000000" stroke-miterlimit="10" points="333.212,333.448 354.393,299.271 333.02,305.894 
	356.506,263.148 334.104,265.884 338.725,258.944 324.481,250.427 324.481,250.427 300.639,286.231 323.041,283.498 
	299.555,326.241 320.928,319.617 308.909,340.049 308.365,340.983 292.707,367.752 352.406,329.469 "/>
<path fill="#FFFFFF" stroke="#000000" stroke-miterlimit="10" d="M241.628,143.692c0,0-20.05,2.347-19.243,22.192
	c0.71,17.479,12.332,22.349,21.774,23.396c6.601,0.732,12.137-0.402,12.137-0.402l-12.137,0.402c0,0-14.521,12.47-2.715,28.442
	c11.907,16.109,25.944,10.784,34.112,5.417l0,0l-1.332-11.119c0,0,2.385,58.058,55.792,22.172l-8.506,5.174
	c0,0-1.207,17.508,18.528,19.756c20.554,2.342,26.024-13.098,27.452-22.702c0.623-4.195,0.475-7.277,0.475-7.277l-0.293,5.904
	c0,0,0.095,2.021,0.309,2.307c9.137,12.232,24.75,25.174,52.128-9.683l0.953-0.891c0,0,12.941,10.618,22.591,1.955
	c18.327-16.453,4.524-32.569-0.746-37.609c-1.09-1.043,0.147-0.389,0.147-0.389l-2.726,6.338c0,0,24.337-49.762-8.067-52.813
	l0.995,14.313c0,0,2.506-53.211-45.054-30.402c-2.434,1.167,1.659-0.362-1.045,1.221l1.143,7.217c0,0,2.198-20.067-17.325-23.72
	c-16.875-3.156-26.202,0.679-30.654,4.942c-1.071,1.025,12.679,4.5,12.679,4.5l3.547,1.908c0,0-34.01-14.715-47.993-2.272
	c-0.971,0.864,4.055,3.044,4.273,3.576l0.117,1.381c0,0-0.892-6.312-20.686-7.94c-16.326-1.343-22.85,8.161-25.417,16.964
	c-0.023,0.08-0.047,0.16-0.069,0.24c-0.102,0.367,10.914,14.745,10.914,14.745l0.458,2.43c0,0-16.279-44.651-48.778-3.969"/>
<path fill="#FFFFFF" stroke="#000000" stroke-miterlimit="10" d="M333.212,333.448"/>
<path fill="#FFFFFF" stroke="#000000" stroke-miterlimit="10" d="M352.406,329.469"/>
<path fill="#FFFFFF" stroke="#000000" stroke-miterlimit="10" d="M333.212,333.448"/>
<path fill="#FFFFFF" stroke="#000000" stroke-miterlimit="10" d="M419.947,231.9"/>
<line fill="#FFFFFF" stroke="#000000" stroke-miterlimit="10" x1="333.212" y1="333.448" x2="352.406" y2="329.469"/>
<path fill="#CECEE1" d="M632.5,155.5"/>
<path fill="#FFFFFF" stroke="#000000" stroke-miterlimit="10" d="M275.987,222.859"/>
<path fill="#FFFFFF" stroke="#000000" stroke-miterlimit="10" d="M275.987,222.859"/>
<path fill="#FFFFFF" stroke="#000000" stroke-miterlimit="10" d="M275.987,222.859"/>
<path fill="#FFFFFF" stroke="#000000" stroke-miterlimit="10" d="M312.408,125.785"/>
</svg>
